<svg width="300" height="300" viewBox="0 0 300 300" fill="none"
	xmlns="http://www.w3.org/2000/svg">
	<path d="M149.47 152.45l2.83 11.48l4.18-1.12c1.27-0.3 2.16-0.89 2.61-1.71c0.45-0.82 0.52-2.01 0.15-3.43l-0.75-2.91 c-0.37-1.49-0.97-2.46-1.79-2.98s-1.86-0.67-3.13-0.3L149.47 152.45z"  fill="#000"/>
	<path d="M292.63 103.73C272.05 40.34 213.3 0 150.07 0c-15.36 0-30.94 2.39-46.37 7.38 C24.89 32.96-18.2 117.6 7.37 196.35C27.95 259.73 86.7 300 149.93 300c15.36 0 30.94-2.39 46.37-7.38 C275.11 267.11 318.2 182.48 292.63 103.73z M159.69 51.16l28.7-15.88c23.63 7.83 44.36 22.97 59.2 43.18l-6.26 32.14l-42.8 13.35 l-38.84-28.11V51.16z M150.89 120.84c5.59-1.34 10.14-1.27 13.79 0.22c3.65 1.49 6.04 4.4 7.08 8.57c0.67 2.61 0.6 5-0.22 7.08 c-0.82 2.09-1.94 3.8-3.36 5.14c-1.42 1.34-2.91 2.31-4.4 2.98l0.15 0.67c3.21-0.45 6.34-0.15 9.25 0.89 c2.91 1.04 4.92 3.8 6.04 8.13c1.12 4.7 0.22 8.5-2.76 11.56c-2.98 2.98-7.31 5.22-12.9 6.56l-30.57 7.46l-2.61-10.96l3.36-0.82 l-7.38-29.97l-3.36 0.82l-2.68-10.89L150.89 120.84z M111.83 35.35l28.48 15.81v44.67l-38.84 28.11l-42.72-13.35l-6.11-31.77 C67.39 58.61 87.67 43.4 111.83 35.35z M51.96 220.81c-8.72-12.16-22.59-36.09-22.89-69.72l23.56-22l43.02 13.42l14.69 44.97 l-26.24 37.29L51.96 220.81z M186.83 265.25c-3.73 1.12-34.82 12.38-73.59 0l-13.57-29.08l26.39-37.36h47.57l26.77 37.36 L186.83 265.25z M257.74 205.07c-2.83 5.59-6.49 10.74-10.14 15.81l-31.61 3.88l-26.47-36.84l14.76-45.49l43.02-13.35l23.56 22 C270.71 169.65 266.38 188.07 257.74 205.07z"  fill="#000"/>
	<path d="M151.33 143.88c1.27-0.3 2.16-0.89 2.61-1.71c0.45-0.82 0.52-2.01 0.15-3.43l-0.6-2.39 c-0.37-1.49-0.97-2.46-1.79-2.98s-1.86-0.67-3.13-0.3l-3.58 0.75l2.68 10.89L151.33 143.88z"  fill="#000"/>
</svg>
